# xmcd
#
# Track frame offsets:
#	150
#	15097
#	29646
#	45247
#	59477
#	74455
#	89216
#	102543
#	120311
#	135709
#	150876
#	166777
#	184986
#	199955
#	215151
#	230921
#	247702
#	265993
#	283152
#	299627
#	319168
#	335955
#
# Disc length: 4741 seconds
#
# Revision: 0
# Processed by: cddbd v1.4b42PL1 Copyright (c) Steve Scherf et al.
# Submitted via: EasyCDDAExtractor 4.5.0.1
#
DISCID=57128316
DTITLE=Bellamy Brothers - Our Swedish Collection
DYEAR=2001
DGENRE=country
TTITLE0=Let Your Love Flow
TTITLE1=If I Said You Had A Beautiful Body
TTITLE2=Sugar Daddy
TTITLE3=Big Hair
TTITLE4=Dancin' Cowboys
TTITLE5=Lovers Live Longer
TTITLE6=Do You Love As Good As You Look
TTITLE7=For All The Wrong Reasons
TTITLE8=Redneck Girl
TTITLE9=I Need More Of You
TTITLE10=Crazy From The Heart
TTITLE11=Old Hippie
TTITLE12=Big Love
TTITLE13=On A Summernight
TTITLE14=Heartbreak Overload
TTITLE15=Over The Line
TTITLE16=Afterglow
TTITLE17=Guilty On The Crime
TTITLE18=Vertical Expression
TTITLE19=You Ain't Just Whistlin' Dixie
TTITLE20=Santa Fe
TTITLE21=Ex-files
EXTD=
EXTT0=
EXTT1=
EXTT2=
EXTT3=
EXTT4=
EXTT5=
EXTT6=
EXTT7=
EXTT8=
EXTT9=
EXTT10=
EXTT11=
EXTT12=
EXTT13=
EXTT14=
EXTT15=
EXTT16=
EXTT17=
EXTT18=
EXTT19=
EXTT20=
EXTT21=
PLAYORDER=
